<?xml version="1.0" encoding="UTF-8" standalone="no"?>
<!-- Created with Inkscape (http://www.inkscape.org/) -->
<svg
   xmlns:svg="http://www.w3.org/2000/svg"
   xmlns="http://www.w3.org/2000/svg"
   version="1.0"
   width="800"
   height="176"
   viewBox="0 0 548.274 120.568"
   id="svg2"
   xml:space="preserve">
 <defs
   id="defs4">
  <style
   type="text/css"
   id="style6" />
 </defs>
 <g
   id="Ebene_x0020_1">
  
  <g
   id="_40295048">
   <path
   d="M 55.5826,2.70951 C 47.75888,2.904217 40.477,4.29498 33.7727,6.80903 C 26.56473,9.5315 20.5159,13.37877 15.6261,18.36913 C 11.52277,22.554 8.24438,27.42587 5.7128,32.95383 C 6.078971,33.156539 6.470291,33.36763 6.88904,33.625589 C 12.49096,37.075449 24.12844,43.572799 24.12844,43.572799 C 26.98961,44.909079 29.54556,46.041119 31.92473,47.067619 C 32.211647,46.059409 32.542763,45.074439 32.899409,44.144349 C 34.764559,39.406219 37.184109,35.625629 40.157679,32.752249 C 43.283279,29.778299 46.660359,27.660909 50.340379,26.400839 C 54.019999,25.090089 57.917949,24.417949 62.001079,24.417949 C 65.681079,24.417949 69.125609,24.989496 72.351379,26.097919 C 75.577569,27.207479 78.584669,28.551379 81.357059,30.164289 C 84.079149,31.777579 86.499079,33.407249 88.616469,35.070829 C 90.783779,36.734029 92.581479,38.195669 93.993209,39.406209 L 97.286079,39.406209 L 97.286079,12.085109 C 95.219369,11.076899 92.799819,10.018399 90.027429,8.859299 C 87.305719,7.649529 84.264329,6.557489 80.887249,5.599189 C 77.660679,4.74263 74.132319,4.053349 70.301849,3.549239 C 66.521259,2.994838 62.270089,2.709446 57.531949,2.709446 C 57.398207,2.709446 57.262179,2.7086839 57.128437,2.709446 C 56.733688,2.7113512 56.343893,2.7014443 55.952197,2.709446 C 55.827981,2.7117322 55.706813,2.7060167 55.582596,2.709446 L 55.5826,2.70951 z M 147.8277,4.92711 L 143.08957,17.76371 C 143.09643,17.769807 143.11929,17.792287 143.1231,17.798003 C 143.12844,17.803337 143.1513,17.826199 143.15663,17.831534 C 144.36526,18.643512 145.67449,18.75363 146.88693,18.335639 C 148.09937,17.917647 149.25275,16.960499 150.18019,15.412369 C 151.10762,13.863479 151.6304,11.816189 151.38996,9.7997786 C 151.14915,7.7841186 150.17866,6.2439886 148.97041,5.4312486 C 148.6492,5.2159656 148.32533,5.0467876 147.99573,4.9271436 L 147.8277,4.9271436 L 147.8277,4.92711 z M 155.82593,4.92711 C 156.24392,5.839299 156.53427,6.87532 156.6661,7.98489 C 157.00484,10.82815 156.29231,13.78838 154.71674,16.42055 C 153.14156,19.05157 150.57417,21.43873 147.39103,22.53611 C 145.15285,23.307318 143.01412,23.294363 141.24118,22.737676 L 140.06532,25.963486 C 149.24056,28.315976 158.34222,31.583316 166.81452,34.230346 C 182.51762,39.966016 186.64412,41.423076 197.52942,49.050546 L 181.23122,4.927146 L 155.82592,4.927146 L 155.82593,4.92711 z M 137.84733,31.91211 L 106.22473,117.50401 L 135.49483,117.50401 L 141.94684,98.65131 C 139.11349,94.89167 137.07954,90.39969 135.42777,84.73951 C 130.64697,68.35971 131.10802,53.34821 139.5612,42.19501 C 141.84358,39.18219 143.51821,37.88097 144.53442,37.96099 C 144.53709,37.96099 144.56528,37.96099 144.56833,37.96099 C 144.60453,37.96823 144.66626,37.985757 144.70245,37.994521 C 144.70512,37.994521 144.73218,37.994521 144.73599,37.994521 C 144.77371,38.010143 144.84115,38.047103 144.87049,38.061201 C 144.88268,38.068441 144.9204,38.086349 144.93793,38.095494 C 144.96194,38.110735 145.01566,38.144647 145.03852,38.162556 C 145.06672,38.188847 145.11511,38.238 145.1395,38.262767 C 145.15169,38.274579 145.19589,38.318778 145.20656,38.33059 C 145.21189,38.336306 145.23475,38.358024 145.24009,38.36374 C 146.01473,39.45273 145.85203,42.5086 144.70245,46.89961 C 142.07752,56.93141 141.19429,68.34101 145.54263,82.01661 C 147.2245,87.30418 148.75244,91.28711 151.05387,94.75261 L 184.99497,94.75261 L 192.79126,117.50401 L 222.83406,117.50401 L 199.44486,54.22571 C 197.48522,53.706745 195.33429,52.91039 194.06812,52.27635 C 184.68827,48.33458 175.67692,44.22896 166.51192,40.61605 L 177.97142,74.08545 L 150.31462,74.08545 L 162.34492,39.00235 C 154.73572,36.15871 146.94322,33.71706 138.68702,32.04662 C 138.3982,32.001277 138.1349,31.960126 137.84723,31.912116 L 137.84733,31.91211 z M 4.53633,35.67556 C 4.354578,36.134322 4.170921,36.585844 3.998695,37.05337 C 1.327665,44.3124 -0.000235,52.39407 -0.000235,61.31557 C -0.000235,70.89318 1.361195,79.34407 4.133575,86.65307 C 6.956255,93.9624 10.938415,100.04517 16.029775,104.93647 C 20.374675,109.108 25.408105,112.43707 31.185275,114.84977 C 31.658516,114.57695 32.156143,114.31442 32.697585,114.04122 C 40.474055,110.14784 48.564485,104.06201 54.271585,97.139021 C 53.169645,96.897447 52.055885,96.605958 50.944415,96.264554 C 47.164205,95.054394 43.736445,93.056654 40.661515,90.284264 C 37.637265,87.561414 35.116745,83.830734 33.100705,79.092264 C 31.134965,74.356044 30.143515,68.440864 30.143515,61.383864 C 30.143896,58.195014 30.343938,55.251164 30.748212,52.512304 C 27.553642,50.895584 24.436802,49.127604 21.439992,47.370284 C 13.307632,42.602814 12.083762,41.689104 5.241992,36.246784 C 4.999275,36.053601 4.754272,35.861942 4.536322,35.675618 L 4.53633,35.67556 z M 94.26123,83.09306 C 92.90019,84.30093 91.16992,85.72904 89.05253,87.39376 C 86.93514,89.05811 84.63333,90.63596 82.16348,92.09836 C 79.24021,93.91245 76.06431,95.34056 72.58625,96.39868 C 70.12288,97.159981 67.60845,97.66409 65.09288,97.87937 C 64.637166,98.469969 64.185644,99.08191 63.71431,99.72775 C 57.88491,107.72179 48.56451,113.72605 38.91451,117.40155 C 44.70352,118.92187 50.89951,119.6885 57.46391,119.6885 C 63.11003,119.6885 67.54561,119.40235 70.77141,118.84833 C 73.99722,118.29431 77.44251,117.48576 81.12211,116.42764 C 83.94517,115.62175 86.64973,114.68175 89.22055,113.57143 C 91.79137,112.46339 94.46278,111.26886 97.28584,110.00879 L 97.28584,83.093086 L 94.26121,83.093086 L 94.26123,83.09306 z "
   style="fill:#006386"
   id="_40281712" />
   <path
   d="M 69.4979,30.2916 C 64.59555,30.541557 59.73473,33.75137 58.6431,39.23022 C 57.54306,44.75327 61.01655,49.75432 65.53215,52.13462 C 67.78976,53.32458 70.39945,53.90489 73.02628,53.4789 C 75.65235,53.052907 78.22927,51.53945 80.08336,48.94234 C 80.853425,47.85678 80.597371,46.35171 79.511813,45.58202 C 78.425873,44.811955 76.921563,45.067246 76.151113,46.153567 C 74.961913,47.819057 73.669453,48.511007 72.253163,48.740767 C 70.836873,48.970529 69.254443,48.642461 67.783663,47.867062 C 64.841723,46.316262 62.787963,43.150652 63.381223,40.171752 C 64.025928,36.934512 66.872993,35.166142 70.001643,35.097552 C 73.129913,35.028585 76.132823,36.522232 77.192853,40.675852 C 77.318212,41.591852 77.959488,42.340202 78.839673,42.624832 C 79.719856,42.909081 80.688433,42.689226 81.326663,42.019754 C 81.96451,41.350282 82.157312,40.364554 81.830768,39.499614 C 80.252158,33.315474 74.885708,30.180724 69.867568,30.291604 C 69.749448,30.294271 69.615325,30.285889 69.497967,30.291604 L 69.4979,30.2916 z M 2.2881,31.80391 C 2.2137989,31.813055 2.142927,31.848491 2.085772,31.871353 C 2.0693876,31.87783 2.0339517,31.896501 2.0190915,31.904883 C 2.0145191,31.908313 1.989371,31.934985 1.9855607,31.938414 C 1.976797,31.944892 1.9600316,31.964705 1.9520299,31.971945 C 1.9440282,31.978804 1.9249767,31.997474 1.9177371,32.005476 C 1.9150699,32.010048 1.8876356,32.034815 1.8842063,32.039388 C 1.8765857,32.052343 1.856772,32.091208 1.8510566,32.106449 C 1.8487704,32.111784 1.8529618,32.134645 1.8510566,32.13998 C 1.8464842,32.155602 1.820193,32.190276 1.8175258,32.207423 C 1.8160017,32.212757 1.8179068,32.235238 1.8175258,32.240953 C 1.7622762,32.882991 2.6931358,34.189553 4.5392358,35.769303 C 4.9054068,34.845683 5.3085388,33.936163 5.7154758,33.047593 C 4.0156958,32.106445 2.8729858,31.730363 2.2880958,31.803903 L 2.2881,31.80391 z M 109.5881,33.0133 C 109.582,33.015205 109.56028,33.044926 109.55457,33.047593 C 109.54847,33.049498 109.52637,33.044926 109.52104,33.047593 C 109.50465,33.054832 109.46731,33.071217 109.4536,33.081124 C 109.4494,33.084172 109.42388,33.111225 109.42007,33.114654 C 109.41587,33.118465 109.38958,33.143994 109.38653,33.148185 C 109.37739,33.16114 109.36024,33.200387 109.353,33.215628 C 109.34729,33.230869 109.32366,33.265543 109.31909,33.282689 C 109.31681,33.29412 109.32062,33.337558 109.31909,33.34937 C 109.31909,33.355847 109.31947,33.377185 109.31909,33.383663 C 109.31909,33.39014 109.31909,33.409954 109.31909,33.417193 C 109.36177,34.553043 111.96802,37.727803 113.35155,39.600573 C 114.22907,40.787103 114.60972,41.158613 114.7968,41.314453 C 114.89777,41.394089 114.96522,41.421904 115.0319,41.482488 C 115.12868,41.57546 115.26776,41.776263 115.63698,42.389343 C 116.76064,44.257923 116.58117,45.116383 115.13287,46.892753 C 112.23589,50.444733 102.23567,54.731333 89.391571,56.234883 C 82.969281,56.986277 75.859571,57.151264 68.523271,56.570953 C 61.186131,55.990642 53.628771,54.692463 46.276371,52.470673 C 41.279521,50.960643 36.975771,49.340123 31.927471,47.161383 C 31.443561,48.864213 31.035476,50.680973 30.751231,52.605563 C 35.185291,54.848693 39.743191,56.838823 44.294231,58.217013 C 52.123281,60.588553 60.166131,61.959123 67.951731,62.552393 C 75.737351,63.148326 83.277931,62.948666 90.097331,62.148119 C 103.73673,60.551599 114.64913,56.968759 119.77053,50.690119 C 122.33106,47.550039 123.65286,42.470889 120.74483,39.298019 C 117.58113,35.845489 118.18697,37.106329 112.34347,33.987969 C 111.06092,33.303636 110.24627,33.027008 109.7898,33.01329 C 109.76389,33.01329 109.71207,33.012147 109.68921,33.01329 C 109.67397,33.015196 109.63586,33.011385 109.62176,33.01329 C 109.61529,33.014815 109.59471,33.012147 109.58823,33.01329 L 109.5881,33.0133 z M 57.8699,66.8211 C 57.627564,66.834055 57.383323,66.886637 57.19776,66.954842 C 57.137557,66.978466 57.050682,67.026095 56.996194,67.054672 C 56.969903,67.070676 56.92075,67.107255 56.895983,67.122877 C 56.870835,67.13888 56.817871,67.172792 56.79501,67.188795 C 56.764527,67.215086 56.721471,67.262334 56.693656,67.290911 C 56.667365,67.317202 56.617069,67.362164 56.593445,67.390742 C 56.576299,67.414366 56.541625,67.466948 56.525621,67.493239 C 56.485613,67.558776 56.453987,67.653272 56.42541,67.726811 C 56.391118,67.821306 56.340821,67.95543 56.324437,68.062881 C 56.178502,69.144631 56.915417,70.872231 58.508507,72.901601 C 61.614297,76.863181 61.456927,80.021551 61.499607,83.689401 C 61.542283,87.359501 58.884207,91.055881 56.021517,94.980901 C 55.471689,95.734581 54.914997,96.495881 54.308017,97.233561 C 56.945137,97.80587 59.550627,98.073735 62.138217,98.073735 C 63.130423,98.073735 64.110437,98.055445 65.095017,97.971238 C 68.076587,94.090818 70.600927,90.869578 70.875267,82.177138 C 71.058543,76.369838 69.782087,72.471118 63.549177,68.868838 C 60.960827,67.375198 59.069007,66.747638 57.869907,66.821178 L 57.8699,66.8211 z M 31.1882,114.9419 C 28.65205,116.3963 27.11078,117.83469 26.75185,118.84023 C 26.731655,118.90081 26.696219,118.98464 26.685169,119.04256 C 26.676406,119.08981 26.687075,119.16601 26.685169,119.21059 C 26.684407,119.23688 26.683264,119.28413 26.685169,119.31042 C 26.687075,119.33671 26.680216,119.38625 26.685169,119.41254 C 26.690504,119.43616 26.711461,119.48875 26.7187,119.51237 C 26.723654,119.52837 26.745372,119.56495 26.75185,119.58057 C 26.75909,119.59391 26.77776,119.63316 26.785381,119.64649 C 26.802527,119.67545 26.831867,119.72232 26.853204,119.74861 C 26.858539,119.75394 26.880639,119.7749 26.886735,119.78023 C 26.892451,119.78824 26.914169,119.80919 26.919885,119.81453 C 26.926362,119.82215 26.946938,119.84349 26.953416,119.84844 C 27.037624,119.91664 27.169461,119.99818 27.289486,120.05077 C 28.135757,120.39217 29.878216,120.3133 32.566006,119.58057 C 34.668916,119.0056 36.779456,118.29687 38.883126,117.49633 C 37.304516,117.08139 35.767046,116.61386 34.246356,116.08385 C 33.211856,115.72416 32.180026,115.35646 31.188196,114.9419 L 31.1882,114.9419 z "
   style="fill:#00963e"
   id="_40166640" />
   <path
   d="M 147.74,0 C 146.77104,0.0426755 145.76016,0.244622 144.71575,0.605078 C 141.53261,1.702448 138.93169,4.089608 137.35613,6.721018 C 135.77942,9.352798 135.10042,12.313038 135.44068,15.155528 C 135.77942,17.998788 137.08331,20.261348 139.13707,21.641448 C 139.74596,22.051057 140.43829,22.381411 141.18702,22.616127 L 143.0354,17.642527 C 141.86868,16.814927 140.91572,15.306427 140.68291,13.341447 C 140.44248,11.325027 140.99879,9.277367 141.92507,7.729237 C 142.8525,6.180727 144.00588,5.223957 145.21947,4.805587 C 146.10956,4.498476 147.03166,4.476376 147.94156,4.805587 L 155.77176,4.805587 C 155.11982,3.383577 154.13294,2.219147 152.88011,1.377827 C 151.70044,0.5849 150.22927,0.076227 148.58703,1.7e-005 L 147.74,1.7e-005 L 147.74,0 z M 117.461,22.6832 C 117.1356,22.687772 116.8121,22.707586 116.48708,22.716731 C 109.04553,22.599373 101.22908,26.586491 101.93588,34.881931 C 102.27653,38.388941 108.6386,44.313601 110.94232,43.686421 C 110.99033,43.671942 111.06578,43.639554 111.11036,43.619359 C 111.13665,43.606023 111.18657,43.567539 111.21095,43.551917 C 111.25134,43.525625 111.30926,43.484855 111.34546,43.451325 C 111.35955,43.437608 111.39918,43.398742 111.41214,43.383882 C 111.41899,43.376643 111.43995,43.358353 111.44643,43.350351 C 109.01088,38.917051 103.54536,31.344451 111.27839,29.941851 C 120.19491,27.475811 128.86719,30.308784 137.79319,31.790231 L 140.01079,25.842331 C 132.45913,23.906691 124.84689,22.587941 117.46099,22.683201 L 117.461,22.6832 z M 164.1042,33.6047 L 162.28973,38.88122 C 163.68773,39.403614 165.06935,39.94658 166.45669,40.49375 L 164.1042,33.6047 z M 197.4753,48.9286 L 199.3896,54.10377 C 201.00936,54.532811 202.50644,54.76486 203.25402,54.607875 C 203.29289,54.599492 203.35461,54.585394 203.38967,54.574344 C 203.41405,54.565962 203.46778,54.55072 203.49064,54.540813 C 203.4975,54.537765 203.51617,54.510712 203.52417,54.507283 C 203.53636,54.499662 203.57942,54.481754 203.59009,54.473371 C 203.60228,54.465369 203.61409,54.448985 203.62362,54.43984 C 203.62895,54.435268 203.65296,54.411644 203.65867,54.406309 C 203.66249,54.400975 203.68801,54.378113 203.69221,54.372778 C 203.70173,54.356394 203.71773,54.323625 203.72574,54.305336 C 203.72726,54.299239 203.72307,54.278283 203.72574,54.271805 C 203.73107,54.246276 203.75812,54.19979 203.75812,54.171213 C 203.75812,54.157115 203.76079,54.118631 203.75812,54.10377 C 203.7566,54.088529 203.72993,54.053093 203.72574,54.036709 C 203.71659,54.003178 203.70554,53.938784 203.69221,53.902205 C 203.51083,53.49412 202.94081,52.902759 201.90974,52.087355 C 200.30484,50.920255 198.83405,49.882325 197.4753,48.928605 L 197.4753,48.9286 z M 143.2035,94.6318 L 141.89275,98.53051 C 147.3636,105.78954 155.81065,110.34211 170.12105,115.33281 C 174.85651,116.9842 177.6308,117.30465 178.4885,116.74263 C 178.56509,116.69005 178.64587,116.61156 178.69007,116.5403 C 178.69692,116.52735 178.71712,116.49077 178.72245,116.47476 C 178.74112,116.43018 178.75065,116.35664 178.75598,116.30673 C 178.75865,116.28082 178.75751,116.23319 178.75598,116.20423 C 178.75332,116.15203 178.73846,116.06516 178.72245,116.00495 C 178.38372,114.82871 175.82547,112.71779 171.12887,110.18965 C 160.20207,104.31414 154.64927,100.12925 150.99817,94.631754 L 143.20341,94.631754 L 143.2035,94.6318 z "
   style="fill:#f5ee00"
   id="_40295488" />
   <path
   d="M 274.27,120.247 C 266.69967,120.247 259.774,119.38587 253.4912,117.65599 C 247.26095,115.92839 241.8278,113.26117 237.1918,109.66157 C 232.60952,106.05701 229.05525,101.52045 226.5321,96.04117 C 224.01043,90.56727 222.74693,84.15067 222.74693,76.80217 C 222.74693,69.05466 224.08587,62.37057 226.76338,56.74427 C 229.49347,51.1191 233.28016,46.46137 238.11928,42.75657 C 242.80521,39.25337 248.21128,36.68712 254.34098,35.05935 C 260.46911,33.4312 266.82848,32.61999 273.42038,32.61999 C 279.34313,32.61999 284.80178,33.234975 289.79828,34.46952 C 294.79475,35.69949 299.45362,37.30287 303.77798,39.27852 L 303.77798,62.00322 L 299.84078,62.00322 C 298.75865,61.115798 297.44524,60.08206 295.89939,58.89705 C 294.40613,57.70747 292.55241,56.54799 290.33862,55.41404 C 288.22809,54.32962 285.90951,53.43763 283.38632,52.7472 C 280.86084,52.006094 277.92614,51.64335 274.58068,51.64335 C 267.16352,51.64335 261.44768,53.91163 257.43118,58.44362 C 253.46731,62.94017 251.48328,69.05462 251.48328,76.80212 C 251.48328,84.79654 253.5157,90.86642 257.58436,95.00932 C 261.70598,99.15228 267.52471,101.22356 275.04436,101.22356 C 278.54604,101.22356 281.68612,100.85091 284.46841,100.1159 C 287.30062,99.327927 289.64358,98.41193 291.49577,97.37743 C 293.24737,96.390177 294.79436,95.35072 296.13064,94.27164 C 297.47225,93.18456 298.70603,92.12148 299.84074,91.08698 L 303.77794,91.08698 L 303.77794,113.80448 C 299.40103,115.78127 294.81722,117.33283 290.02914,118.46716 C 285.29254,119.65369 280.03659,120.24696 274.27004,120.24696 L 274.27,120.247 z "
   style="fill:#056286"
   id="_40345888" />
   <path
   d="M 401.857,80.4651 L 340.189,80.4651 C 340.58832,87.18611 343.08179,92.3319 347.67093,95.8946 C 352.3138,99.45991 359.12323,101.24238 368.10523,101.24238 C 373.79136,101.24238 379.30493,100.19759 384.64433,98.1103 C 389.9822,96.02301 394.19869,93.7814 397.29193,91.38967 L 400.28684,91.389289 L 400.28684,113.46359 C 394.19872,115.96049 388.46194,117.76658 383.07144,118.88757 C 377.68556,120.00856 371.72244,120.56792 365.18584,120.56792 C 348.32024,120.56792 335.39834,116.69816 326.41624,108.95862 C 317.43723,101.21606 312.94644,90.192419 312.94644,75.881319 C 312.94644,61.725219 317.18846,50.522119 325.66754,42.272419 C 334.20074,33.971649 345.87634,29.821419 360.69614,29.821419 C 374.36674,29.821419 384.64434,33.361199 391.52764,40.439219 C 398.4144,47.466959 401.85664,57.600919 401.85664,70.840619 L 401.85702,80.465089 M 375.06402,64.347789 C 374.91504,58.593829 373.51818,54.265289 370.8742,51.362189 C 368.22756,48.459869 364.11165,47.008519 358.525,47.008519 C 353.33383,47.008519 349.07161,48.383659 345.7258,51.133189 C 342.38415,53.883089 340.51177,58.287819 340.11244,64.348089 L 375.06404,64.347708 L 375.06402,64.347789 z "
   style="fill:#056286"
   id="_40374936" />
   <path
   d="M 473.377,62.0323 L 470.92773,62.0323 C 469.75187,61.634503 467.86424,61.336918 465.25912,61.137257 C 462.65286,60.939121 460.48327,60.837766 458.74539,60.837766 C 454.81353,60.837766 451.34157,61.087342 448.32759,61.583445 C 445.31706,62.082215 442.07181,62.930395 438.59833,64.124925 L 438.59833,120.24512 L 411.02083,120.24512 L 411.02083,36.435725 L 438.59833,36.435725 L 438.59833,48.748025 C 444.67693,43.674595 449.96373,40.317325 454.45573,38.673925 C 458.95114,36.982905 463.08838,36.138925 466.86553,36.138925 C 467.83754,36.138925 468.93415,36.161406 470.15993,36.211702 C 471.38761,36.262379 472.45717,36.335156 473.3766,36.435749 L 473.37698,62.032349 L 473.377,62.0323 z "
   style="fill:#056286"
   id="_40387488" />
   <path
   d="M 521.963,12.534 L 494.0707,23.3553 L 494.0707,36.0917 L 482.5441,36.0917 L 482.5441,54.0368 L 494.0707,54.0368 L 494.0707,92.6155 C 494.0707,102.7048 496.71049,109.8248 502.00149,113.9887 C 507.34469,118.15261 515.43779,120.23724 526.33109,120.23724 C 531.20677,120.23724 535.35887,120.00595 538.72989,119.5651 C 542.10126,119.17378 545.26687,118.62014 548.27397,117.88475 L 548.27397,99.73815 L 545.95539,99.73815 C 545.02377,100.2293 543.36895,100.76465 540.98293,101.35296 C 538.64949,101.94089 536.75539,102.22705 535.30366,102.22705 C 531.77531,102.22705 529.07189,101.7599 527.20484,100.78065 C 525.3877,99.751476 524.09867,98.362616 523.37395,96.648356 C 522.59474,94.933716 522.18285,92.988166 522.13064,90.833056 C 522.07806,88.677556 522.06205,86.162376 522.06205,83.271866 L 522.06244,54.036866 L 548.27394,54.036866 L 548.27394,36.091766 L 522.06244,36.091766 L 522.06244,12.534066 L 521.96299,12.534066 L 521.963,12.534 z "
   style="fill:#056286"
   id="_22979184" />
  </g>
 </g>
</svg>